<?xml version="1.0" encoding="utf-8"?>
<!-- Generator: Adobe Illustrator 27.3.1, SVG Export Plug-In . SVG Version: 6.00 Build 0)  -->
<svg version="1.1" id="レイヤー_1" xmlns="http://www.w3.org/2000/svg" xmlns:xlink="http://www.w3.org/1999/xlink" x="0px"
	 y="0px" viewBox="0 0 27.97 25.99" style="enable-background:new 0 0 27.97 25.99;" xml:space="preserve">
<style type="text/css">
	.st0{fill:#FFFFFF;stroke:#000000;stroke-miterlimit:10;}
	.st1{fill:none;stroke:#000000;stroke-miterlimit:10;}
	.st2{fill:none;stroke:#000000;stroke-width:4;stroke-miterlimit:10;}
	.st3{fill:none;stroke:#000000;stroke-width:3;stroke-miterlimit:10;}
	.st4{fill:#F1FF84;}
	.st5{fill:none;stroke:#000000;stroke-width:0.2835;stroke-miterlimit:10;}
</style>
<polygon class="st0" points="-1592.45,-483.15 -1686.76,-537.6 -1781.07,-483.15 -1781.07,-374.26 -1686.76,-319.81 
	-1592.45,-374.26 "/>
<ellipse class="st0" cx="-2514.17" cy="-264.07" rx="192.15" ry="183"/>
<g>
	<g>
		<polygon class="st0" points="-2582.27,238.69 -2435.73,238.69 -2362.46,111.79 -2435.73,-15.12 -2582.27,-15.12 -2655.54,111.79 
					"/>
		<polygon class="st0" points="-2582.27,238.69 -2435.73,238.69 -2362.46,111.79 -2435.73,-15.12 -2582.27,-15.12 -2655.54,111.79 
					"/>
	</g>
	<g>
		<polygon class="st0" points="-2913.99,40.6 -2810.37,144.21 -2668.83,106.29 -2630.89,-35.26 -2734.52,-138.88 -2876.06,-100.95 
					"/>
		<polygon class="st0" points="-2913.99,40.6 -2810.37,144.21 -2668.83,106.29 -2630.89,-35.26 -2734.52,-138.88 -2876.06,-100.95 
					"/>
	</g>
	<g>
		<polygon class="st0" points="-3008.47,-334.04 -3008.47,-187.5 -2881.56,-114.24 -2754.65,-187.5 -2754.65,-334.04 
			-2881.56,-407.31 		"/>
		<polygon class="st0" points="-3008.47,-334.04 -3008.47,-187.5 -2881.56,-114.24 -2754.65,-187.5 -2754.65,-334.04 
			-2881.56,-407.31 		"/>
	</g>
	<g>
		<polygon class="st0" points="-2810.37,-665.76 -2913.99,-562.14 -2876.06,-420.6 -2734.52,-382.67 -2630.89,-486.29 
			-2668.83,-627.83 		"/>
		<polygon class="st0" points="-2810.37,-665.76 -2913.99,-562.14 -2876.06,-420.6 -2734.52,-382.67 -2630.89,-486.29 
			-2668.83,-627.83 		"/>
	</g>
	<g>
		<polygon class="st0" points="-2435.73,-760.24 -2582.27,-760.24 -2655.54,-633.34 -2582.27,-506.43 -2435.73,-506.43 
			-2362.46,-633.34 		"/>
		<polygon class="st0" points="-2435.73,-760.24 -2582.27,-760.24 -2655.54,-633.34 -2582.27,-506.43 -2435.73,-506.43 
			-2362.46,-633.34 		"/>
	</g>
	<g>
		<polygon class="st0" points="-2104.02,-562.14 -2207.63,-665.76 -2349.17,-627.83 -2387.1,-486.29 -2283.49,-382.67 
			-2141.93,-420.6 		"/>
		<polygon class="st0" points="-2104.02,-562.14 -2207.63,-665.76 -2349.17,-627.83 -2387.1,-486.29 -2283.49,-382.67 
			-2141.93,-420.6 		"/>
	</g>
	<g>
		<polygon class="st0" points="-2009.53,-187.5 -2009.53,-334.04 -2136.43,-407.31 -2263.34,-334.04 -2263.34,-187.5 
			-2136.43,-114.24 		"/>
		<polygon class="st0" points="-2009.53,-187.5 -2009.53,-334.04 -2136.43,-407.31 -2263.34,-334.04 -2263.34,-187.5 
			-2136.43,-114.24 		"/>
	</g>
	<g>
		<polygon class="st0" points="-2207.63,144.21 -2104.02,40.6 -2141.93,-100.95 -2283.49,-138.88 -2387.1,-35.26 -2349.17,106.29 		
			"/>
		<polygon class="st0" points="-2207.63,144.21 -2104.02,40.6 -2141.93,-100.95 -2283.49,-138.88 -2387.1,-35.26 -2349.17,106.29 		
			"/>
	</g>
</g>
<polygon class="st0" points="-534.02,-590.91 -534.02,-699.8 -628.31,-754.25 -722.62,-699.8 -722.62,-590.91 -628.31,-536.46 "/>
<polygon class="st0" points="-345.4,-590.91 -345.4,-699.8 -439.71,-754.25 -534.02,-699.8 -534.02,-590.91 -439.71,-536.46 "/>
<polygon class="st0" points="-439.71,-427.52 -439.71,-536.41 -534.02,-590.86 -628.31,-536.41 -628.31,-427.52 -534.02,-373.07 "/>
<polygon class="st0" points="-534.02,-265.36 -534.02,-374.26 -628.31,-428.71 -722.62,-374.26 -722.62,-265.36 -628.31,-210.92 "/>
<polygon class="st0" points="-911.37,-265.36 -911.37,-374.26 -1005.67,-428.71 -1099.98,-374.26 -1099.98,-265.36 
	-1005.67,-210.92 "/>
<g>
	<g>
		<polygon class="st0" points="-1985.46,-1338.45 -1985.46,-1134.51 -1808.84,-1032.54 -1632.22,-1134.51 -1632.22,-1338.45 
			-1808.84,-1440.41 		"/>
	</g>
	<g>
		<polygon class="st0" points="-2364.88,-1641.92 -2509.09,-1497.71 -2456.3,-1300.73 -2259.32,-1247.94 -2115.11,-1392.15 
			-2167.89,-1589.13 		"/>
	</g>
	<g>
		<polygon class="st0" points="-2418.59,-2124.8 -2622.52,-2124.8 -2724.49,-1948.18 -2622.52,-1771.57 -2418.59,-1771.57 
			-2316.62,-1948.18 		"/>
	</g>
	<g>
		<polygon class="st0" points="-2115.11,-2504.22 -2259.32,-2648.42 -2456.3,-2595.64 -2509.09,-2398.65 -2364.88,-2254.45 
			-2167.89,-2307.23 		"/>
	</g>
	<g>
		<polygon class="st0" points="-1632.22,-2557.92 -1632.22,-2761.86 -1808.84,-2863.83 -1985.46,-2761.86 -1985.46,-2557.92 
			-1808.84,-2455.96 		"/>
	</g>
	<g>
		<polygon class="st0" points="-1252.81,-2254.45 -1108.6,-2398.65 -1161.39,-2595.64 -1358.37,-2648.42 -1502.57,-2504.22 
			-1449.8,-2307.23 		"/>
	</g>
	<g>
		<polygon class="st0" points="-1199.1,-1771.57 -995.16,-1771.57 -893.21,-1948.18 -995.16,-2124.8 -1199.1,-2124.8 
			-1301.07,-1948.18 		"/>
	</g>
	<g>
		<polygon class="st0" points="-1502.57,-1392.15 -1358.37,-1247.95 -1161.39,-1300.73 -1108.6,-1497.71 -1252.81,-1641.92 
			-1449.8,-1589.14 		"/>
	</g>
</g>
<polygon class="st0" points="-817.79,-428.71 -912.09,-374.26 -912.09,-265.36 -817.79,-210.92 -723.47,-265.36 -723.47,-374.26 "/>
<polygon class="st0" points="-817.79,-755.68 -912.09,-701.23 -912.09,-592.34 -817.79,-537.89 -723.47,-592.34 -723.47,-701.23 "/>
<polygon class="st0" points="-911.41,-590.86 -1005.71,-536.41 -1005.71,-427.52 -911.41,-373.07 -817.1,-427.52 -817.1,-536.41 "/>
<polygon class="st0" points="408.9,-1086.41 314.6,-1140.86 220.29,-1086.41 220.29,-977.52 314.6,-923.07 408.9,-977.52 "/>
<polygon class="st0" points="2304.9,-589.15 2210.6,-643.6 2116.29,-589.15 2116.29,-480.26 2210.6,-425.81 2304.9,-480.26 "/>
<polygon class="st0" points="2496.6,-193.36 2402.29,-247.81 2307.98,-193.36 2307.98,-84.47 2402.29,-30.02 2496.6,-84.47 "/>
<polygon class="st0" points="2166.62,-345 1940.5,-475.55 1712.76,-342.19 1711.15,-78.28 1937.26,52.27 2165,-81.09 "/>
<line class="st1" x1="-439.71" y1="-1225.84" x2="-439.71" y2="-1118.09"/>
<line class="st1" x1="-628.31" y1="-535.84" x2="-628.31" y2="-428.09"/>
<path class="st2" d="M-75.3-2440.98"/>
<path class="st3" d="M-42.81-342.26"/>
<g>
	<g>
		<g>
			<path d="M-667.14-2017.67c2.19,3.48-1.83,6.84,1.89,9.11c-0.76,1.89-2.2,3.74-4.06,4.92c-0.98,0.58-2.01,1.01-3.07,1.2
				c-1.15,0.17-2.31,0.11-3.39-0.25c-1.25-1.45-2.5-2.9-3.8-4.35c1.24-0.84,2.29-1.94,3.36-3.09c0.52-0.58,1.06-1.17,1.55-1.76
				c0.47-0.59,0.95-1.18,1.42-1.74c0.94-1.12,1.97-2.12,2.96-2.85C-669.31-2017.22-668.28-2017.68-667.14-2017.67z"/>
			<path d="M-801.58-1843.32c1.7,1.32,0.62,4.15,0.05,5.95c-1.88,0.14-3.58-1.18-4.45-3.12
				C-806.03-1843.11-803.43-1843.16-801.58-1843.32z"/>
			<path d="M-714.85-1860.42c2.31,3.02,5.75,3.51,8.44,6.88c0.49,9.19-6.92,16.4-14.59,19.38c-2.33,1.01-4.77-1.3-5.27-3.54
				c-0.41-7.77-1.71-15.18,4.37-20.78C-719.54-1865.75-715.35-1853.06-714.85-1860.42z"/>
			<path d="M-791.3-1772.84l1.44-3.17c1.67,1.27-0.42,6.98,2.27,8.74l5.96-4.92c2.67,1.74,0.3,3.71-0.26,5.53
				c11.12-0.01,13.72,6.52,25.46,7.08l-4.44,5.94c2.59,3.16,7.66,2.82,9.57,5.89c-8.6,4.18,1.76,10.08,0.99,16.3
				c-1.98,2.44-5.39,8.86-10.71,10.65c3.18,2.12,6.14,7.13,8.48,11.35l-4.42-1.05c-1.74,3.56-0.06,6.27,3.28,6.88
				c-4.09-0.66-2.64,5.72-4.24,7.07c7.03,3.11,14.82-1.58,22.06,5.43c3.24,4.22,2.66,8.99,3.97,14.94
				c-6.9-0.33-12.26,7.13-16.53,6.48c-3.18-5.71-14.02-5.74-13.03-14.18c-2.71,0.18-6.33,2.46-8.85,5.19
				c1.21,4.56,7.93,2.51,9.2,7.03c-9.08,1.9-12.91,0.83-21.87,1.08l0.82,4.16c-7.93-7.37-24.74-1.05-29.23-5.66
				c-7.79-9.4-14.08-22.42-13.93-33.14c8.41-1.97,2.1-11.61,3.67-15.49c2.7-0.8,5.95,3.28,6.15-1.52c-2.91-7.01-8.34,1.24-7.85-9.08
				c9.15-5.23,7.52-19.85,11.72-27.17c3.96-8.42,12.58,2.55,13.43-8.1c-5.75-0.65,0.34-2.92-0.44-5.6
				C-796.16-1774.86-794.41-1774.28-791.3-1772.84z"/>
			<path d="M-663.78-1755.95c3,0.95,1.8,4.7,2.55,6.87c1.27,6.2-6.22,5.88-9.67,5.89c-3.47-2.06-3.5-6.54-2.83-10.21
				C-672.4-1759.3-666.79-1756.9-663.78-1755.95z"/>
			<path d="M-718.2-1680.08c2.9,1.58,6.62,2.46,7.69,5.81c-0.5,4.76-1.04,9.54-4.9,11.62c-2.86,0.09-5.28,0.73-7.45,0.61
				c-1.07-0.06-2.08-0.31-3.04-0.93c-0.98-0.62-1.98-1.61-2.9-3.12c-2.03-3.23-1.29-7.25,0.92-10.2c1.1-1.48,2.61-2.67,4.26-3.39
				C-721.97-1680.39-720.14-1680.61-718.2-1680.08z"/>
			<path d="M-562.29-1839.58c10.84-1.24,8.16,7.36,11.13,13.27c-5.97,3.1-4.21,5.74-2.29,8.33c1.93,2.6,4.03,5.17-1.08,8.18
				c-2.67,0.77-6.12,1.66-8.64-1.28c2.34-5.21-2.11-7.25-6.47-9.2c-4.34-1.97-8.58-3.88-5.61-9.03
				C-574.56-1834.66-567.17-1836.97-562.29-1839.58z"/>
			<path d="M-613.47-1767.03c3.34,1.28,5.67,6.06,4.37,8.94c-0.75,3.88-5.71,4.05-8.55,3.76c-3.36-1.28-5.44-6.17-3.51-9.1
				C-619.35-1767.08-616.47-1766.09-613.47-1767.03z"/>
			<path d="M-633.14-1725.1c2,1.6,0.77,3.24,1.78,5.34c-1.37,3.56-5.25,1.81-7.4,2.05c-0.93-1.86-1.85-3.75-2.75-5.63
				C-638.91-1725.84-636.74-1725.36-633.14-1725.1z"/>
			<path d="M-601.47-1753.91c1.94,2.64,3.19,5.42,2.73,8.87c-3.71,1.82-7.46,5.5-11.14,0.94c-2.9-2.11-1.17-4.65-1.8-8.28
				C-608.89-1754.75-604.99-1755.11-601.47-1753.91z"/>
			<path d="M-621.73-1711.86c3.67,2.06,6.91,1.14,10.1,0.22c0.88,5.09,7.98,6.84,10.42,9.74c-6.18,1.48-1.5,8.5-2.93,13.26
				c-3.18,2.6-8.13,4.2-13.22,4c-5.08-0.19-10.24-2.18-13.57-6.59c0.53-3.22-1.37-7.25-2.05-10.64c-0.68-3.4-0.16-6.12,4.97-6.83
				C-625.47-1709.41-622.43-1709.13-621.73-1711.86z"/>
			<path d="M-678.16-1636.2c5.06,1.33,10.25,2.55,15.49,3.72c2.27,3.77,1.74,8.21,0.9,12.21c-0.83,4-1.96,7.55-0.64,9.54
				c-3.19,0.86-8.22-0.02-12.42-0.06c-4.21-0.03-7.65,0.79-7.94,5.21c-7.2,2.25-15.72,0.23-20.76-5.1
				c-1.17-3.25-0.36-5.71,1.36-7.77c1.71-2.06,4.32-3.7,6.85-5.34c2.5-1.63,4.92-3.26,6.13-5.21c1.22-1.95,1.24-4.24-0.92-7.21
				C-687.1-1632.87-682.79-1632.81-678.16-1636.2z"/>
			<path d="M-589.1-1745.36c3.32,1.63,6.52,4.39,8.54,7.03c-2.69,2-3.9,5.59-6.41,8.31c-3.74-1.92-9.62-3.44-10.54-8.51
				C-597.91-1742.58-593.46-1746.42-589.1-1745.36z"/>
			<path d="M-559.6-1743.04c1.93,7.15-5.84,6.17-9.3,10.15c-2.65,0.07-5.09-1.01-7.43-3.2c-1.41-3.52-1.19-6.53,1.73-9.66
				C-568.87-1748.24-565.22-1742.48-559.6-1743.04z"/>
			<path d="M-500.36-1796.53c5.17,1.24,2.58,5.25,2.95,8.18c-2.45,2.12-5.8,2.89-9.12,1.07
				C-512.11-1791.42-507.62-1798.66-500.36-1796.53z"/>
			<path d="M-520.55-1693.38c2.75,1.48,1.39,7.62-2.69,7.06l-4.07-5.74C-524.85-1692.79-523.33-1694.87-520.55-1693.38z"/>
			<path d="M-106.2-2044.01c0.46-0.05,0.46,0.7,0.46,1.43l-1.14-0.99C-106.89-2044.32-106.43-2043.62-106.2-2044.01z"/>
			<path d="M-312.53-1791.82c2.69,6.32-0.62,20.23,9.44,17.54c11.34-7.4,18.64,4.66,29.58,3.28c-1.61,3.61,0.82,8.5,6.81,8.76
				c1.84,0.45,4.13-0.92,4.92-2.36c0.6,3.71-2.83,14.63,2.08,20.75c-4.04,7.92-10.79,18.33-11.72,23.44c0.98,2.62,3-1.34,3.97,2.01
				c-6.18-2.12-14.88,2.32-22.31,3.51l1.02,2.64c-6.43,4.54-14,0.24-19.12-2.08c-3.31-0.46-3.03,4.31-4.52,5.03
				c-1.47-0.76-1.23-11.81-8.64-11.19l-5.59,5.44c0.4-4.05,6.35-6.16,2.7-10.64c-2.96-1.53-5.93-2.28-7.04-3.38
				c2.07-3.48,0.14-7.1-1.7-10.74c-1.83-3.64-3.55-7.33-0.89-11c7.97-1.08,4.2-8.47,3.04-12.52l4.58,4.47
				c-0.75-7.4,3.89-11.03,8.17-15.74l2.67,2.64C-308.05-1776.99-315.3-1786.35-312.53-1791.82z"/>
			<path d="M-318.06-1780.13l-0.42,0.34l-1.51-5.17C-318.05-1784.56-318.86-1781.62-318.06-1780.13z"/>
			<path d="M-337.71-1748.99c0,0.72,1.14,1.83,0.01,2.94C-338.86-1747.15-339.99-1748.27-337.71-1748.99z"/>
			<path d="M-586.97-1536.8c-0.78,2.74-2.18,2.89-3.72,2.3c-1.58-0.58-3.32-1.89-4.72-2.04c1.11-1.3,2.88-2.24,4.52-2.41
				C-589.29-1539.13-587.75-1538.54-586.97-1536.8z"/>
			<path d="M-333.17-1735l0.74,0.74h-2.25C-334.68-1734.99-333.92-1735-333.17-1735z"/>
			<path d="M-265.8-1775.1c-1.14,0.32-2.02,3.22-2.69,0.98C-268.03-1775.93-266.56-1775.14-265.8-1775.1z"/>
			<path d="M-241.65-1776.62c0.35,0.41,1.05,1.16,0.65,1.52l-1.77-1.2C-242.74-1777.04-242.39-1776.63-241.65-1776.62z"/>
			<path d="M-250.09-1744.18l0.69,0.77l-2.93-0.12C-251.56-1744.24-251.17-1744.59-250.09-1744.18z"/>
			<path d="M-215.62-1724.1c3.03-6.55,10.03,2.43,15.9-1.21c-1.07-0.39-4.81,6.93,0.26,7.72c4.34,1.51,2.94-4.4,5.82-0.69
				c-4.71-0.41-7.7,6.2-7.36,8.77l4.38,0.78c-8.07,2.88-17.39,7.54-24.19,1.08c-5.32-5.68,1.69-8.06-1.75-14.05
				C-218.72-1717.55-218.47-1726.37-215.62-1724.1z"/>
			<path d="M-294.15-1647.63c2.48,0.47,3.06,4.17,0.84,5.56C-298-1641.13-299.56-1646.71-294.15-1647.63z"/>
			<path d="M-180.17-1750.32c1.4,0.73,4.27,1.45,2.86,4.42c-2.87,2.21-5.02,0.02-5.37-2.55
				C-181.61-1748.83-180.53-1749.21-180.17-1750.32z"/>
			<path d="M-86.35-1668.95c1.32-7.04,15-6.72,16.18-17.23c-2.33,2.8,0.14,8.88-4.09,8.14c2.65-1.9,5.3,0.25,8.43,2.47
				c3.13,2.23,6.75,4.53,11.15,2.9c0.59,7.73,0.33,12.21,3.49,21.12c-4.61,1.26-8.95,4.69-10.05,9.25l2.11,0.89
				c-8.28,1.21-12.39-0.64-16.43,7.09l0.95,1.4c-3.45-2.68,0.09-3.33-1.49-7.26c-2.24,1.67-6.12-2.1-7.01,1.28
				c-4.73-4.45-7.57-10.89-14.65-12.69c5.97-0.54,6.17-5.55,6.22-10.07C-91.48-1666.17-91.59-1670.22-86.35-1668.95z"/>
			<path d="M-105.46-1637.86c-0.28,1.86-1.72,4.15-4.15,2.78c-1.65-1.41-1.77-3.61-0.29-5.14
				C-108.34-1640.29-106.34-1639.29-105.46-1637.86z"/>
			<polygon points="-51.81,-1674.46 -53.42,-1675.04 -52.1,-1676.65 			"/>
			<polygon points="-50.16,-1640.92 -52.23,-1641.05 -51.1,-1641.53 			"/>
			<path d="M-17.12-1655.7c3.43,0.85-1.01,5.06,0.05,6.37C-17.81-1651.07-16.71-1653.54-17.12-1655.7z"/>
			<path d="M-24.08-1631.97c1.37-1.75-0.35-4.05-1.92-5.66c7.9,3.49,7.14-6.49,9.7-9.98c10.17,2.95,19.63-4.05,30.15-5.01
				c0.1-1.16-1.07-1.27-1.51-1.52c4.1,7.34,12.78,5.26,19.08,8.31c-5.54,2.46,1.63,5.28,3.59,6.71c1.08-2.34,3.04-3.64,5.13-4.41
				c2.11-0.76,4.38-0.97,5.88-1.11l-5.4,3.45c0.1,3.76-2.42,7.36,0.2,10.53c1.07-1.01,3-1.45,4.3,0.16
				c-0.74,1.29-2.02,1.56-3.23,1.85c0.79,5.48,4.06,7.35,7.75,7.7c-3.32,2.42-5.22,5.86-6.47,9.71c-0.64,1.92-1.14,3.94-1.6,5.99
				c-0.48,2.05-0.97,4.13-1.51,6.15c1.01,0.76,2.09,1.5,3.02,2.29c-0.9-1.66-2.45-1.37-3.96-0.77c-1.54,0.61-3.26,1.6-4.5,1.33
				c-0.15,4.77-3.75,5.84-7.92,6.83c-2.1,0.5-4.29,0.96-6.14,1.84c-1.88,0.88-3.35,2.16-3.99,4.28c-6.96-6.39-13.71-1.88-23.15-3.1
				l0.16,0.72c-4.25-0.53-7.59-1.9-10.42-3.76c-2.81-1.85-5.08-4.18-7.2-6.63c-4.22-4.89-7.81-10.22-13.93-13.29
				c3.65-2.33,3.67-5.26,3.88-8.21c0.19-2.97,0.56-5.99,4.63-8.67l-3.68-6.16C-29.59-1634.04-28.37-1627.55-24.08-1631.97z"/>
			<path d="M10.46-1657.12l1.85-1.95L10.46-1657.12z"/>
			<path d="M18.2-1661.6l2.44-3.99L18.2-1661.6z"/>
			<polygon points="-185.17,-1423.53 -184.74,-1423.88 -180.94,-1420.59 -181.34,-1420.23 			"/>
			<path d="M-153.28-1449.66c0.42,1.11-0.72,2.97-2.29,3.73C-158.03-1447.36-154.86-1449.61-153.28-1449.66z"/>
			<path d="M51.83-1667.25l2.22-1.57L51.83-1667.25z"/>
			<path d="M58.92-1648.37c-1.67,2.55-6.38-0.26-8.4,2.03C53.63-1646.6,55.63-1650.75,58.92-1648.37z"/>
			<polygon points="51.79,-1636.08 49.83,-1635.69 50.59,-1636.96 			"/>
			<path d="M83.36-1676.36c3.05,2.87-0.12,3.77-2.37,3.41C80.75-1674.41,80.97-1677.42,83.36-1676.36z"/>
			<polygon points="71.65,-1653.01 67.6,-1651.53 68.86,-1652.5 			"/>
			<path d="M105.83-1583.06c4.53-1.12,6.64,3.01,8.65,6.42c0.87,3.21-4.46,6.32-0.46,8.64c-3.26,0.17-12.05,3.85-15.93-2.95
				C94.27-1577.01,99.65-1583.16,105.83-1583.06z"/>
			<path d="M132.83-1603.48c-2.67-4.77,5.21-2.73,0.97-6.88c2.1-2.78,4.75-3.09,7.59-3.69c2.81-0.57,5.78-1.41,8.55-5.14
				c-0.51,2.49,1.19,3.82,2.97,4.03c1.77,0.22,3.66-0.69,3.6-2.72c3.11,8.12,7.39,10.91,8.72,18.89c-2.45,3.64-8.77,6.72-4.9,12.49
				c-3.6-0.27-9.87,1.04-9.01,5.75c-6.85-3.78-11.06-4.95-17.69-10.54c-0.84-1.36-0.22-4.35-0.2-7.06c-0.01-2.7-0.53-5.13-3.94-5.31
				C130.85-1603.88,131.63-1602.53,132.83-1603.48z"/>
			<path d="M8.39-1366.26c2.53,1.29,4.05,2.35,5.78,3.48c1.71,1.12,3.68,2.32,6.8,3.83c0.38,2.74-1.65,4.04-3.92,5.32
				c-2.22,1.29-4.45,2.57-4.07,5.32c-1.66,0.21-3.22,0.41-4.69,0.6c-1.5,0.18-2.9,0.35-4.24,0.48c-2.64,0.27-5.08,0.38-7.31,0.26
				s-4.25-0.48-6.2-1.2c-1.97-0.72-3.85-1.8-5.74-3.34c-1.97-2.74,1.46-5.38,1.53-7.98C-9.74-1365.88,2.03-1363.4,8.39-1366.26z"/>
			<polygon points="165.96,-1618.34 163.88,-1616.96 165.26,-1619 			"/>
			<path d="M89.71-1452.03c1.81,1.51,2.41,3.28,3.87,4.48c-0.21,2.66-0.35,5.22-1.24,7.21c-0.44,1-1.08,1.86-1.99,2.52
				c-0.88,0.66-2.05,1.13-3.58,1.34c-1.01-0.56-2.25-0.47-3.49-0.73c-1.23-0.26-2.41-0.85-3.11-2.77c-0.15-2.59-1.6-6.41-0.24-8.2
				c1.54-1.09,3.07-2.53,4.64-3.47C86.2-1452.56,87.85-1452.99,89.71-1452.03z"/>
			<path d="M126.23-1493.5c0.73-2.36,2.47-3.66,4.42-4.72c1.97-1.06,4.2-1.88,5.85-3.27c0.68,0.36,1.06,0.69,1.51,0.98
				c0.43,0.29,0.85,0.54,1.24,0.78c0.78,0.47,1.49,0.87,2.14,1.33c1.32,0.92,2.36,2.14,3.38,4.75c1.93,4.51,0.2,6.21-2.25,7.69
				c-1.24,0.74-2.64,1.42-3.8,2.35c-0.16,0.12-0.26,0.23-0.45,0.36s-0.37,0.26-0.55,0.4c-0.35,0.28-0.68,0.57-0.97,0.89
				c-0.58,0.64-1.02,1.38-1.26,2.26c-4.08-4.2-8.28-9.88-10.11-14.41L126.23-1493.5z"/>
			<path d="M281.46-1692.39c-0.03,0.75-0.07,1.48-0.45,1.83l-1.37-2.27C280.73-1693.14,281.09-1692.78,281.46-1692.39z"/>
			<path d="M79.27-1373.81c0.58,0.3,1.28,0.84,1.9,1.53c0.62,0.69,1.16,1.55,1.57,2.48c0.81,1.87,1.03,4.08,0.11,6.01
				c-0.18,0.99-0.47,1.7-0.84,2.23c-0.38,0.52-0.81,0.86-1.21,1.1c-0.81,0.48-1.87,0.56-2.57,0.98c-2.27-1.54-3.31-6.93-3.27-10.75
				c0.54-0.94,1.05-2.34,1.68-3.25C77.27-1374.4,78.2-1374.83,79.27-1373.81z"/>
			<path d="M246.08-1613.9l1.52,3.34L246.08-1613.9z"/>
			<path d="M225.52-1574.44c-1.51,1.91-3.59,6.7-6.77,4.27c-3.48-1.33-0.87-6.21-1.16-8.79c1.32,0.88,3.16,0.72,4.75,0.98
				C223.94-1577.7,225.27-1577,225.52-1574.44z"/>
			<path d="M-456.71-1662.77c2.52-3.21,5.89-5.01,6.85-10.29c1.91,1.66,1.21,5.8,4.26,4.4c7.86-3.3,18.12-3,22.47-12.89
				c-0.87,3.38-5.26,6.29-3.89,10.99c3.66,1.92,7.59,2.76,12.45,1.71c-4.11,1.74,2.02,4.65,2.1,6.14
				c7.93,4.65,18.11-3.23,24.93-0.19c-5.19,2.06-15.84-0.36-17.95,6.79c1.04,7.31,9.4,8.33,12.3,11.9c0.03,0.71-2.79-0.64-4.17-0.54
				c0.91,5.85-3.93,13.81,3.69,16.4c-1.36,5.4-5.84,10.88-11.16,16.16c-5.33,5.28-11.49,10.4-16.35,15
				c-8.27-0.49-16.7-3.09-25.11-4.11c-0.24,1.13-0.79,2.66-0.67,4.12c-2.17-4.41-6.09-8.35-10.33-11.19
				c-2.13-1.41-4.29-2.55-6.44-3.32c-2.18-0.77-4.25-1.19-6-1.17c-3.62-4.43,4.66-2.74,1.67-7.97c0.23-4.47-4.17-6.21-6.27-9.31
				c2.74-11.04,3.55-17.05,4.23-27.88c2.61,4.54,4.83,2.36,6.94-0.45C-461.08-1661.29-459.02-1664.75-456.71-1662.77z"/>
			<path d="M329.46-1679.12c-0.38,1.11,0.35,1.12,0.73,1.5l11.24-12.43l0.01,2.94c8.59-2.57,14.21-3.7,23.77-6.3
				c6.93,1.34,12.27,5.36,17.61,9.46c5.32,4.07,10.64,8.22,17.18,9.58c1.87,3.26,0.93,3.58-0.88,3.55c-1.81-0.05-4.45-0.44-6,1.41
				c1.1,2.08-1.79,8.02,3.51,5.13c-3.93,3.84-3.84,7.87-7.11,11.57l4.5,2.47c-5.42,3.57-10.07,3.61-11.92,10.41
				c4.15,2.25,6.63-2.03,10.51,1.23c-5.4-1.62-10.04-0.23-14.87,1.23c-4.81,1.42-9.85,2.9-15.56,1.21l1.6,4.74
				c-5.76-0.91-8.53-8.25-15.04-4.48l0.49,2.59c-9.27-4.37-14.38-12.19-22.27-17.81C318.42-1661.2,326.4-1669.56,329.46-1679.12z"/>
			<path d="M208.3-1539.21c1.56,1.01,1.87,2.87,1.89,4.33c-1.54,3.38-4.21,3.13-6.04,1.04
				C202.9-1537.46,206.17-1539.48,208.3-1539.21z"/>
			<path d="M223.25-1557.09c1.43,0.32,0.26,1.83,0.24,2.57c-1.15,1.48-3.4,0.1-2.52-2.5
				C221.56-1558.5,222.39-1557.43,223.25-1557.09z"/>
			<path d="M301.17-1604.61l1.64-1.41L301.17-1604.61z"/>
			<path d="M317.86-1609.64c0.34,1.84-0.46,2.67-1.77,2.82c-1.33,0.15-3.08-0.36-4.31-1.12c0.83-0.72,1.76-1.34,2.79-1.68
				C315.58-1609.98,316.78-1610.02,317.86-1609.64z"/>
			<path d="M392.38-1675.27l0.33-0.43c1.01,0.76,2.03,1.48,3.05,2.23l-0.34,0.43L392.38-1675.27z"/>
			<path d="M356.75-1624.96c-1.85-2.17-3.63-4.35-5.39-6.54c1.6,1.33,3.19,2.66,4.85,3.97L356.75-1624.96z"/>
			<path d="M407.5-1681.45c0.89,0.61,0.83,2.48-0.6,3.46C405.59-1678.92,405.99-1681.2,407.5-1681.45z"/>
			<path d="M409.09-1667.52l5.32,0.22L409.09-1667.52z"/>
			<path d="M409.2-1652.63c-0.66,3.47,3.44,0.21,4.7,0.38c-1.74,3.09-3.63,2.73-5.74,2.11c-2.12-0.61-4.46-1.51-7.31,0.56
				C403.1-1651.4,406-1654,409.2-1652.63z"/>
			<path d="M620.69-1744.28c7.77,6.26,19.73-0.14,25.46,5.58c-0.64,0.55-2.75,0.11-2.25,1.92c11.84-0.71,3.15,12.88,14.86,11.64
				l-4.89,2.02c0.06,3.85,2.96,4.64,5.53,6.29c-1.5,0.19-3.16-1.7-5.02-0.64c0.82,5.36-2.18,10.18-4.49,13.85
				c0.04-0.6-0.24-0.9-0.79-1.52c-3.86,4.47-5.47,6.42-12.07,7.77c-0.42,2.04,1.58,3.06,3.03,3.43c-2.96-4.32-8.75-4.09-14.58-4.32
				c-5.83-0.24-11.69-0.93-15.03-7.24c-6.01,2.72-6.06-5.21-9.29-7.95c-4.12-3.08-3.78-6.29-2.79-10.69
				C603.08-1733.18,609.46-1741.84,620.69-1744.28z"/>
			<path d="M252.4-1500.45c2.7,1.58,1.86,4.5,1.08,6.68c-1.58,0.88-2.99,0.63-4.01-0.13c-1.02-0.77-1.77-2.08-2.19-3.38
				c0.22-1.28,1.07-2,2.07-2.43c0.5-0.22,1.04-0.36,1.55-0.48C251.45-1500.28,251.97-1500.38,252.4-1500.45z"/>
			<path d="M462.26-1698.73l3.38-2.04L462.26-1698.73z"/>
			<path d="M344.85-1558.11l0.99,0.74l-3.34-0.38C342.94-1558.86,343.88-1558.1,344.85-1558.11z"/>
			<path d="M357.39-1553.42l0.08,0.75c-1.1-0.71-2.14-1.44-3.18-2.17C355.75-1555.22,356.85-1553.77,357.39-1553.42z"/>
			<path d="M351.94-1537.48c3.06,0.72,6.34,1.4,9.58,2.07c-4.33,2.11-5.7,3.7-6.81,5.43c-1.1,1.72-2,3.58-5.49,6.17
				c-1.92-1.28-4.65-1.29-7.53-1.71c-2.74-0.44-5.68-1.29-7.58-4.28c-1.48-1.85-0.65-7,2.5-8.81c2.64-0.16,6.73-1.69,10.14-2.3
				C350.08-1541.5,352.73-1541.18,351.94-1537.48z"/>
			<polygon points="659.34,-1746.66 657.78,-1745.89 658.72,-1746.71 			"/>
			<polygon points="352.8,-1539.68 352.28,-1540.07 353.72,-1541.18 			"/>
			<polygon points="773.54,-1961.93 772.78,-1960.29 773.4,-1961.87 			"/>
			<path d="M339.77-1520.5c0.99,0.25,1.99,0.51,3.04,0.75C341.76-1519.99,340.76-1520.24,339.77-1520.5z"/>
			<path d="M656-1732.73l5.34,0.37L656-1732.73z"/>
			<polygon points="669.46,-1737.68 666.77,-1737.58 667.67,-1737.8 			"/>
			<path d="M678.34-1738.83c1.12,0.66-0.07,1.18-0.69,1.73C677.4-1738.01,676.87-1738.64,678.34-1738.83z"/>
			<path d="M655.83-1708.21c-1.01,1.99-1.13-0.69-1.69-1.29C655.03-1709.75,654.96-1708.58,655.83-1708.21z"/>
			<path d="M649.67-1696.27c-2.24-1.88-5.97,0.82-6.45-1.01C645.64-1697.71,649.71-1701.26,649.67-1696.27z"/>
			<path d="M673.09-1722.65l4.02,1.46L673.09-1722.65z"/>
			<polygon points="659.72,-1708.82 657.47,-1706.36 656.38,-1707.58 658.9,-1709.76 			"/>
			<path d="M394.65-1513.2c2.66,2.37,0.64,3.84-2.01,4.25s-5.89-0.31-5.6-2.16C388.47-1513.06,391.69-1514.02,394.65-1513.2z"/>
			<path d="M406.92-1520.29c0.69,3.64-7.34,2.97-6.72-0.06C402.89-1521.01,404.96-1521.96,406.92-1520.29z"/>
			<path d="M401.14-1501.91c0.02,3.35-3.28,1.05-5.7,0.51C397.73-1501.59,397.87-1504.18,401.14-1501.91z"/>
			<path d="M399.83-1462.5c-7.72,1.76-7.77,9.16-17.02,6.03C387.15-1460.43,392.5-1461.87,399.83-1462.5z"/>
			<path d="M396.74-1455.21c-0.79-1.04-1.28,3.46-3.56,1.03L396.74-1455.21z"/>
			<polygon points="403.63,-1458.76 400.09,-1457.69 402.4,-1458.64 			"/>
			<polygon points="406.8,-1455.36 402.13,-1453.43 406.09,-1455.67 			"/>
			<path d="M450.86-1463.65c1.49,1.98-1.6,3.68-3.26,1.72c0.13-0.58,0.61-0.85,1.24-1.06
				C449.47-1463.2,450.16-1463.33,450.86-1463.65z"/>
			<path d="M738.77-1677.16c0.47,0.84,0.93,1.69,1.24,2.54c0.15,0.42,0.28,0.85,0.19,1.22c0,0.01-0.02,0.07,0,0.04l0.15-0.4
				c0.1-0.26,0.21-0.52,0.33-0.77c0.14-0.27,0.23-0.48,0.32-0.67c0.1-0.2,0.21-0.39,0.34-0.57c0.14-0.29,0.41-0.57,0.52-0.67
				c0.19-0.14,0.2-0.08,0.15-0.11c0.04,0.04,0.06-0.04-0.18,0.14c-0.05,0.04-0.08,0.08-0.12,0.13c-0.07,0.07-0.13,0.14-0.19,0.22
				c-0.06,0.08-0.11,0.16-0.16,0.25l-0.21,0.33c-0.15,0.25-0.23,0.46-0.39,0.79c-0.16,0.33-0.31,0.67-0.45,1.03
				c-0.06,0.17-0.14,0.37-0.23,0.6c-0.08,0.22-0.17,0.44-0.25,0.67c-0.16,0.47-0.32,0.96-0.49,1.45l-0.08,0.24l-0.02,0.04
				l-0.03,0.08c-0.01,0.05-0.05,0.1-0.09,0.14c-0.06,0.09-0.13,0.17-0.23,0.24c-0.16,0.15-0.38,0.26-0.6,0.36
				c-0.91,0.37-2.1,0.4-3.3,0.2c-1.18-0.19-2.53-0.63-3.59-1.15c-1.08-0.52-1.96-1.16-2.48-1.75c-0.39-2.81,1.28-4.04,3.44-4.59
				C734.5-1677.68,737.15-1677.48,738.77-1677.16z"/>
			<path d="M644.15-1570.76c-0.49,1.82-2.67,0.93-4.45,0.43c-1.17-1.37,0.01-2.77,1.45-3.18
				C642.62-1573.92,644.34-1573.33,644.15-1570.76z"/>
			<polygon points="703.37,-1601.25 699.83,-1603.71 703.87,-1603.06 			"/>
		</g>
	</g>
</g>
<text transform="matrix(1 0 0 1 -2626.1077 -619.8892)" style="font-family:'LoRes9OT-WideBoldAltOakland'; font-size:56.938px;">music</text>
<circle class="st4" cx="13.9" cy="5.5" r="5.5"/>
<circle class="st4" cx="5.5" cy="12.89" r="5.5"/>
<circle class="st4" cx="22.47" cy="12.89" r="5.5"/>
<circle class="st4" cx="13.9" cy="20.49" r="5.5"/>
<line class="st5" x1="34.79" y1="5.02" x2="51.76" y2="5.02"/>
<line class="st5" x1="43.19" y1="12.34" x2="43.19" y2="-2.65"/>
</svg>
