<?xml version="1.0" encoding="utf-8"?>
<!-- Generator: Adobe Illustrator 27.3.1, SVG Export Plug-In . SVG Version: 6.00 Build 0)  -->
<svg version="1.1" id="レイヤー_1" xmlns="http://www.w3.org/2000/svg" xmlns:xlink="http://www.w3.org/1999/xlink" x="0px"
	 y="0px" viewBox="0 0 17.57 13.67" style="enable-background:new 0 0 17.57 13.67;" xml:space="preserve">
<style type="text/css">
	.st0{fill:#FFFFFF;stroke:#000000;stroke-miterlimit:10;}
	.st1{fill:none;stroke:#000000;stroke-width:4;stroke-miterlimit:10;}
	.st2{fill:none;stroke:#000000;stroke-width:3;stroke-miterlimit:10;}
	.st3{fill:#F1FF84;}
	.st4{fill:none;stroke:#FFFFFF;stroke-miterlimit:10;}
	.st5{fill:none;stroke:#000000;stroke-width:0.2835;stroke-miterlimit:10;}
</style>
<polygon class="st0" points="-1849.05,-410.55 -1943.35,-465 -2037.66,-410.55 -2037.66,-301.66 -1943.35,-247.21 -1849.05,-301.66 
	"/>
<ellipse class="st0" cx="-2770.78" cy="-191.47" rx="192.15" ry="183"/>
<g>
	<g>
		<polygon class="st0" points="-2838.86,311.29 -2692.33,311.29 -2619.06,184.39 -2692.33,57.48 -2838.86,57.48 -2912.13,184.39 		
			"/>
		<polygon class="st0" points="-2838.86,311.29 -2692.33,311.29 -2619.06,184.39 -2692.33,57.48 -2838.86,57.48 -2912.13,184.39 		
			"/>
	</g>
	<g>
		<polygon class="st0" points="-3170.58,113.19 -3066.96,216.81 -2925.42,178.88 -2887.49,37.34 -2991.11,-66.28 -3132.65,-28.35 		
			"/>
		<polygon class="st0" points="-3170.58,113.19 -3066.96,216.81 -2925.42,178.88 -2887.49,37.34 -2991.11,-66.28 -3132.65,-28.35 		
			"/>
	</g>
	<g>
		<polygon class="st0" points="-3265.06,-261.44 -3265.06,-114.91 -3138.16,-41.64 -3011.25,-114.91 -3011.25,-261.44 
			-3138.16,-334.71 		"/>
		<polygon class="st0" points="-3265.06,-261.44 -3265.06,-114.91 -3138.16,-41.64 -3011.25,-114.91 -3011.25,-261.44 
			-3138.16,-334.71 		"/>
	</g>
	<g>
		<polygon class="st0" points="-3066.96,-593.16 -3170.58,-489.54 -3132.65,-348 -2991.11,-310.07 -2887.49,-413.69 
			-2925.42,-555.23 		"/>
		<polygon class="st0" points="-3066.96,-593.16 -3170.58,-489.54 -3132.65,-348 -2991.11,-310.07 -2887.49,-413.69 
			-2925.42,-555.23 		"/>
	</g>
	<g>
		<polygon class="st0" points="-2692.33,-687.64 -2838.86,-687.64 -2912.13,-560.74 -2838.86,-433.83 -2692.33,-433.83 
			-2619.06,-560.74 		"/>
		<polygon class="st0" points="-2692.33,-687.64 -2838.86,-687.64 -2912.13,-560.74 -2838.86,-433.83 -2692.33,-433.83 
			-2619.06,-560.74 		"/>
	</g>
	<g>
		<polygon class="st0" points="-2360.61,-489.54 -2464.23,-593.16 -2605.77,-555.23 -2643.7,-413.69 -2540.08,-310.07 
			-2398.54,-348 		"/>
		<polygon class="st0" points="-2360.61,-489.54 -2464.23,-593.16 -2605.77,-555.23 -2643.7,-413.69 -2540.08,-310.07 
			-2398.54,-348 		"/>
	</g>
	<g>
		<polygon class="st0" points="-2266.13,-114.91 -2266.13,-261.44 -2393.03,-334.71 -2519.94,-261.44 -2519.94,-114.91 
			-2393.03,-41.64 		"/>
		<polygon class="st0" points="-2266.13,-114.91 -2266.13,-261.44 -2393.03,-334.71 -2519.94,-261.44 -2519.94,-114.91 
			-2393.03,-41.64 		"/>
	</g>
	<g>
		<polygon class="st0" points="-2464.23,216.81 -2360.61,113.19 -2398.54,-28.35 -2540.08,-66.28 -2643.7,37.34 -2605.77,178.88 		
			"/>
		<polygon class="st0" points="-2464.23,216.81 -2360.61,113.19 -2398.54,-28.35 -2540.08,-66.28 -2643.7,37.34 -2605.77,178.88 		
			"/>
	</g>
</g>
<polygon class="st0" points="-790.61,-518.31 -790.61,-627.2 -884.92,-681.65 -979.22,-627.2 -979.22,-518.31 -884.92,-463.86 "/>
<polygon class="st0" points="-602,-518.31 -602,-627.2 -696.31,-681.65 -790.61,-627.2 -790.61,-518.31 -696.31,-463.86 "/>
<polygon class="st0" points="-696.31,-354.92 -696.31,-463.81 -790.61,-518.26 -884.92,-463.81 -884.92,-354.92 -790.61,-300.47 "/>
<polygon class="st0" points="-790.61,-192.77 -790.61,-301.66 -884.92,-356.11 -979.22,-301.66 -979.22,-192.77 -884.92,-138.32 "/>
<polygon class="st0" points="-1167.97,-192.77 -1167.97,-301.66 -1262.28,-356.11 -1356.58,-301.66 -1356.58,-192.77 
	-1262.28,-138.32 "/>
<g>
	<g>
		<polygon class="st0" points="-2242.05,-1265.85 -2242.05,-1061.91 -2065.44,-959.94 -1888.83,-1061.91 -1888.83,-1265.85 
			-2065.44,-1367.81 		"/>
	</g>
	<g>
		<polygon class="st0" points="-2621.48,-1569.32 -2765.68,-1425.11 -2712.9,-1228.13 -2515.91,-1175.35 -2371.71,-1319.55 
			-2424.49,-1516.54 		"/>
	</g>
	<g>
		<polygon class="st0" points="-2675.18,-2052.2 -2879.11,-2052.2 -2981.08,-1875.59 -2879.11,-1698.97 -2675.18,-1698.97 
			-2573.21,-1875.59 		"/>
	</g>
	<g>
		<polygon class="st0" points="-2371.71,-2431.62 -2515.91,-2575.82 -2712.9,-2523.04 -2765.68,-2326.06 -2621.48,-2181.85 
			-2424.49,-2234.63 		"/>
	</g>
	<g>
		<polygon class="st0" points="-1888.83,-2485.32 -1888.83,-2689.26 -2065.44,-2791.23 -2242.05,-2689.26 -2242.05,-2485.32 
			-2065.44,-2383.36 		"/>
	</g>
	<g>
		<polygon class="st0" points="-1509.41,-2181.85 -1365.2,-2326.06 -1417.98,-2523.04 -1614.97,-2575.82 -1759.17,-2431.62 
			-1706.39,-2234.63 		"/>
	</g>
	<g>
		<polygon class="st0" points="-1455.7,-1698.97 -1251.77,-1698.97 -1149.8,-1875.59 -1251.77,-2052.2 -1455.7,-2052.2 
			-1557.67,-1875.59 		"/>
	</g>
	<g>
		<polygon class="st0" points="-1759.17,-1319.55 -1614.97,-1175.35 -1417.98,-1228.13 -1365.2,-1425.12 -1509.41,-1569.32 
			-1706.39,-1516.54 		"/>
	</g>
</g>
<polygon class="st0" points="-1074.38,-356.11 -1168.69,-301.66 -1168.69,-192.77 -1074.38,-138.32 -980.07,-192.77 
	-980.07,-301.66 "/>
<polygon class="st0" points="-1074.38,-683.08 -1168.69,-628.63 -1168.69,-519.74 -1074.38,-465.29 -980.07,-519.74 
	-980.07,-628.63 "/>
<polygon class="st0" points="-1168,-518.26 -1262.31,-463.81 -1262.31,-354.92 -1168,-300.47 -1073.69,-354.92 -1073.69,-463.81 "/>
<polygon class="st0" points="152.31,-1013.81 58,-1068.26 -36.31,-1013.81 -36.31,-904.92 58,-850.47 152.31,-904.92 "/>
<polygon class="st0" points="2048.31,-516.55 1954,-571 1859.69,-516.55 1859.69,-407.66 1954,-353.21 2048.31,-407.66 "/>
<polygon class="st0" points="2240,-120.77 2145.69,-175.21 2051.39,-120.77 2051.39,-11.87 2145.69,42.58 2240,-11.87 "/>
<polygon class="st0" points="1910.03,-272.4 1683.91,-402.95 1456.16,-269.59 1454.54,-5.68 1680.66,124.87 1908.4,-8.49 "/>
<line class="st0" x1="-696.31" y1="-1153.24" x2="-696.31" y2="-1045.49"/>
<line class="st0" x1="-884.92" y1="-463.24" x2="-884.92" y2="-355.49"/>
<path class="st1" d="M-331.9-2368.39"/>
<path class="st2" d="M-299.41-269.67"/>
<g>
	<g>
		<g>
			<path d="M-923.73-1945.07c2.19,3.48-1.83,6.84,1.89,9.11c-0.76,1.89-2.2,3.74-4.06,4.92c-0.98,0.58-2.01,1.01-3.07,1.2
				c-1.15,0.17-2.31,0.11-3.39-0.25c-1.25-1.45-2.5-2.9-3.8-4.35c1.24-0.84,2.29-1.94,3.36-3.09c0.52-0.58,1.06-1.17,1.55-1.76
				c0.47-0.59,0.95-1.18,1.42-1.74c0.94-1.12,1.97-2.12,2.96-2.85C-925.91-1944.63-924.87-1945.08-923.73-1945.07z"/>
			<path d="M-1058.17-1770.72c1.7,1.32,0.62,4.15,0.05,5.95c-1.88,0.14-3.58-1.18-4.45-3.12
				C-1062.62-1770.51-1060.03-1770.57-1058.17-1770.72z"/>
			<path d="M-971.46-1787.82c2.31,3.02,5.75,3.51,8.44,6.88c0.49,9.19-6.92,16.4-14.59,19.38c-2.33,1.01-4.77-1.3-5.27-3.54
				c-0.41-7.77-1.71-15.18,4.37-20.78C-976.13-1793.15-971.95-1780.46-971.46-1787.82z"/>
			<path d="M-1047.9-1700.24l1.44-3.17c1.67,1.27-0.42,6.98,2.27,8.74l5.96-4.92c2.67,1.74,0.3,3.71-0.26,5.53
				c11.12-0.01,13.72,6.52,25.46,7.08l-4.44,5.94c2.59,3.16,7.66,2.82,9.57,5.89c-8.6,4.18,1.76,10.08,0.99,16.3
				c-1.98,2.44-5.39,8.86-10.71,10.65c3.18,2.12,6.14,7.13,8.48,11.35l-4.42-1.05c-1.74,3.56-0.06,6.27,3.28,6.88
				c-4.09-0.66-2.64,5.72-4.24,7.07c7.03,3.11,14.82-1.58,22.06,5.43c3.24,4.22,2.66,8.99,3.97,14.94
				c-6.9-0.33-12.26,7.13-16.53,6.48c-3.18-5.71-14.02-5.74-13.03-14.18c-2.71,0.18-6.33,2.46-8.85,5.19
				c1.21,4.56,7.93,2.51,9.2,7.03c-9.08,1.9-12.91,0.83-21.87,1.08l0.82,4.16c-7.93-7.37-24.74-1.05-29.23-5.66
				c-7.79-9.4-14.08-22.42-13.93-33.14c8.41-1.97,2.1-11.61,3.67-15.49c2.7-0.8,5.95,3.28,6.15-1.52c-2.91-7.01-8.34,1.24-7.85-9.08
				c9.15-5.23,7.52-19.85,11.72-27.17c3.96-8.42,12.58,2.55,13.43-8.1c-5.75-0.65,0.34-2.92-0.44-5.6
				C-1052.75-1702.26-1051-1701.68-1047.9-1700.24z"/>
			<path d="M-920.37-1683.35c3,0.95,1.8,4.7,2.55,6.87c1.27,6.2-6.22,5.88-9.67,5.89c-3.47-2.06-3.5-6.54-2.83-10.21
				C-929-1686.7-923.38-1684.3-920.37-1683.35z"/>
			<path d="M-974.79-1607.49c2.9,1.58,6.62,2.46,7.69,5.81c-0.5,4.76-1.04,9.54-4.9,11.62c-2.86,0.09-5.28,0.73-7.45,0.61
				c-1.07-0.06-2.08-0.31-3.04-0.93c-0.98-0.62-1.98-1.61-2.9-3.12c-2.03-3.23-1.29-7.25,0.92-10.2c1.1-1.48,2.61-2.67,4.26-3.39
				C-978.56-1607.79-976.74-1608.01-974.79-1607.49z"/>
			<path d="M-818.89-1766.98c10.84-1.24,8.16,7.36,11.13,13.27c-5.97,3.1-4.21,5.74-2.29,8.33c1.93,2.6,4.03,5.17-1.08,8.18
				c-2.67,0.77-6.12,1.66-8.64-1.28c2.34-5.21-2.11-7.25-6.47-9.2c-4.34-1.97-8.58-3.88-5.61-9.03
				C-831.16-1762.06-823.77-1764.37-818.89-1766.98z"/>
			<path d="M-870.07-1694.43c3.34,1.28,5.67,6.06,4.37,8.94c-0.75,3.88-5.71,4.05-8.55,3.76c-3.36-1.28-5.44-6.17-3.51-9.1
				C-875.95-1694.48-873.07-1693.49-870.07-1694.43z"/>
			<path d="M-889.74-1652.51c2,1.6,0.77,3.24,1.78,5.34c-1.37,3.56-5.25,1.81-7.4,2.05c-0.93-1.86-1.85-3.75-2.75-5.63
				C-895.51-1653.25-893.34-1652.76-889.74-1652.51z"/>
			<path d="M-858.06-1681.31c1.94,2.64,3.19,5.42,2.73,8.87c-3.71,1.82-7.46,5.5-11.14,0.94c-2.9-2.11-1.17-4.65-1.8-8.28
				C-865.48-1682.15-861.59-1682.51-858.06-1681.31z"/>
			<path d="M-878.33-1639.26c3.67,2.06,6.91,1.14,10.1,0.22c0.88,5.09,7.98,6.84,10.42,9.74c-6.18,1.48-1.5,8.5-2.93,13.26
				c-3.18,2.6-8.13,4.2-13.22,4c-5.08-0.19-10.24-2.18-13.57-6.59c0.53-3.22-1.37-7.25-2.05-10.64c-0.68-3.4-0.16-6.12,4.97-6.83
				C-882.07-1636.81-879.04-1636.54-878.33-1639.26z"/>
			<path d="M-934.75-1563.6c5.06,1.33,10.25,2.55,15.49,3.72c2.27,3.77,1.74,8.21,0.9,12.21c-0.83,4-1.96,7.55-0.64,9.54
				c-3.19,0.86-8.22-0.02-12.42-0.06c-4.21-0.03-7.65,0.79-7.94,5.21c-7.2,2.25-15.72,0.23-20.76-5.1
				c-1.17-3.25-0.36-5.71,1.36-7.77c1.71-2.06,4.32-3.7,6.85-5.34c2.5-1.63,4.92-3.26,6.13-5.21c1.22-1.95,1.24-4.24-0.92-7.21
				C-943.69-1560.27-939.39-1560.21-934.75-1563.6z"/>
			<path d="M-845.7-1672.76c3.32,1.63,6.52,4.39,8.54,7.03c-2.69,2-3.9,5.59-6.41,8.31c-3.74-1.92-9.62-3.44-10.54-8.51
				C-854.5-1669.98-850.05-1673.82-845.7-1672.76z"/>
			<path d="M-816.2-1670.44c1.93,7.15-5.84,6.17-9.3,10.15c-2.65,0.07-5.09-1.01-7.43-3.2c-1.41-3.52-1.19-6.53,1.73-9.66
				C-825.48-1675.64-821.82-1669.89-816.2-1670.44z"/>
			<path d="M-756.96-1723.93c5.17,1.24,2.58,5.25,2.95,8.18c-2.45,2.12-5.8,2.89-9.12,1.07
				C-768.71-1718.82-764.22-1726.06-756.96-1723.93z"/>
			<path d="M-777.15-1620.78c2.75,1.48,1.39,7.62-2.69,7.06l-4.07-5.74C-781.45-1620.19-779.92-1622.27-777.15-1620.78z"/>
			<path d="M-362.8-1971.41c0.46-0.05,0.46,0.7,0.46,1.43l-1.14-0.99C-363.48-1971.72-363.04-1971.02-362.8-1971.41z"/>
			<path d="M-569.13-1719.22c2.69,6.32-0.62,20.23,9.44,17.54c11.34-7.4,18.64,4.66,29.58,3.28c-1.61,3.61,0.82,8.5,6.81,8.76
				c1.84,0.45,4.13-0.92,4.92-2.36c0.6,3.71-2.83,14.63,2.08,20.75c-4.04,7.92-10.79,18.33-11.72,23.44c0.98,2.62,3-1.34,3.97,2.01
				c-6.18-2.12-14.88,2.32-22.31,3.51l1.02,2.64c-6.43,4.54-14,0.24-19.12-2.08c-3.31-0.46-3.03,4.31-4.52,5.03
				c-1.47-0.76-1.23-11.81-8.64-11.19l-5.59,5.44c0.4-4.05,6.35-6.16,2.7-10.64c-2.96-1.53-5.93-2.28-7.04-3.38
				c2.07-3.48,0.14-7.1-1.7-10.74c-1.83-3.64-3.55-7.33-0.89-11c7.97-1.08,4.2-8.47,3.04-12.52l4.58,4.47
				c-0.75-7.4,3.89-11.03,8.17-15.74l2.67,2.64C-564.64-1704.4-571.9-1713.75-569.13-1719.22z"/>
			<path d="M-574.67-1707.53l-0.42,0.34l-1.51-5.17C-574.64-1711.96-575.45-1709.02-574.67-1707.53z"/>
			<path d="M-594.31-1676.39c0,0.72,1.14,1.83,0.01,2.94C-595.45-1674.55-596.59-1675.67-594.31-1676.39z"/>
			<path d="M-843.58-1464.21c-0.78,2.74-2.18,2.89-3.72,2.3c-1.58-0.58-3.32-1.89-4.72-2.04c1.11-1.3,2.88-2.24,4.52-2.41
				C-845.89-1466.53-844.35-1465.94-843.58-1464.21z"/>
			<path d="M-589.76-1662.41l0.74,0.74l-2.25,0C-591.27-1662.39-590.51-1662.4-589.76-1662.41z"/>
			<path d="M-522.4-1702.5c-1.14,0.32-2.02,3.22-2.69,0.98C-524.64-1703.33-523.16-1702.54-522.4-1702.5z"/>
			<path d="M-498.25-1704.02c0.35,0.41,1.05,1.16,0.65,1.52l-1.77-1.2C-499.34-1704.44-498.98-1704.03-498.25-1704.02z"/>
			<path d="M-506.68-1671.58l0.69,0.77l-2.93-0.12C-508.16-1671.64-507.77-1671.99-506.68-1671.58z"/>
			<path d="M-472.23-1651.51c3.03-6.55,10.03,2.43,15.9-1.21c-1.07-0.39-4.81,6.93,0.26,7.72c4.34,1.51,2.94-4.4,5.82-0.69
				c-4.71-0.41-7.7,6.2-7.36,8.77l4.38,0.78c-8.07,2.88-17.39,7.54-24.19,1.08c-5.32-5.68,1.69-8.06-1.75-14.05
				C-475.31-1644.95-475.06-1653.77-472.23-1651.51z"/>
			<path d="M-550.75-1575.03c2.48,0.47,3.06,4.17,0.84,5.56C-554.6-1568.53-556.16-1574.11-550.75-1575.03z"/>
			<path d="M-436.77-1677.73c1.4,0.73,4.27,1.45,2.86,4.42c-2.87,2.21-5.02,0.02-5.37-2.55
				C-438.2-1676.23-437.13-1676.61-436.77-1677.73z"/>
			<path d="M-342.94-1596.35c1.32-7.04,15-6.72,16.18-17.23c-2.33,2.8,0.14,8.88-4.09,8.14c2.65-1.9,5.3,0.25,8.43,2.47
				c3.13,2.23,6.75,4.53,11.15,2.9c0.59,7.73,0.33,12.21,3.49,21.12c-4.61,1.26-8.95,4.69-10.05,9.25l2.11,0.89
				c-8.28,1.21-12.39-0.64-16.43,7.09l0.95,1.4c-3.45-2.68,0.09-3.33-1.49-7.26c-2.24,1.67-6.12-2.1-7.01,1.28
				c-4.73-4.45-7.57-10.89-14.65-12.69c5.97-0.54,6.17-5.55,6.22-10.07C-348.08-1593.57-348.18-1597.62-342.94-1596.35z"/>
			<path d="M-362.05-1565.26c-0.28,1.86-1.72,4.15-4.15,2.78c-1.65-1.41-1.77-3.61-0.29-5.14
				C-364.93-1567.69-362.93-1566.69-362.05-1565.26z"/>
			<polygon points="-308.41,-1601.86 -310.02,-1602.44 -308.69,-1604.05 			"/>
			<polygon points="-306.76,-1568.32 -308.83,-1568.45 -307.69,-1568.93 			"/>
			<path d="M-273.72-1583.1c3.43,0.85-1.01,5.06,0.05,6.37C-274.41-1578.47-273.3-1580.95-273.72-1583.1z"/>
			<path d="M-280.67-1559.37c1.37-1.75-0.35-4.05-1.92-5.66c7.9,3.49,7.14-6.49,9.7-9.98c10.17,2.95,19.63-4.05,30.15-5.01
				c0.1-1.16-1.07-1.27-1.51-1.52c4.1,7.34,12.78,5.26,19.08,8.31c-5.54,2.46,1.63,5.28,3.59,6.71c1.08-2.34,3.04-3.64,5.13-4.41
				c2.11-0.76,4.38-0.97,5.88-1.11l-5.4,3.45c0.1,3.76-2.42,7.36,0.2,10.53c1.07-1.01,3-1.45,4.3,0.16
				c-0.74,1.29-2.02,1.56-3.23,1.85c0.79,5.48,4.06,7.35,7.75,7.7c-3.32,2.42-5.22,5.86-6.47,9.71c-0.64,1.92-1.14,3.94-1.6,5.99
				c-0.48,2.05-0.97,4.13-1.51,6.15c1.01,0.76,2.09,1.5,3.02,2.29c-0.9-1.66-2.45-1.37-3.96-0.77c-1.54,0.61-3.26,1.6-4.5,1.33
				c-0.15,4.77-3.75,5.84-7.92,6.83c-2.1,0.5-4.29,0.96-6.14,1.84c-1.88,0.88-3.35,2.16-3.99,4.28c-6.96-6.39-13.71-1.88-23.15-3.1
				l0.16,0.72c-4.25-0.53-7.59-1.9-10.42-3.76c-2.81-1.85-5.08-4.18-7.2-6.63c-4.22-4.89-7.81-10.22-13.93-13.29
				c3.65-2.33,3.67-5.26,3.88-8.21c0.19-2.97,0.56-5.99,4.63-8.67l-3.68-6.16C-286.18-1561.44-284.98-1554.95-280.67-1559.37z"/>
			<path d="M-246.14-1584.52l1.85-1.95L-246.14-1584.52z"/>
			<path d="M-238.41-1589l2.44-3.99L-238.41-1589z"/>
			<polygon points="-441.76,-1350.93 -441.35,-1351.28 -437.54,-1347.99 -437.94,-1347.64 			"/>
			<path d="M-409.87-1377.06c0.42,1.11-0.72,2.97-2.29,3.73C-414.62-1374.76-411.47-1377.01-409.87-1377.06z"/>
			<path d="M-204.77-1594.65l2.22-1.57L-204.77-1594.65z"/>
			<path d="M-197.68-1575.77c-1.67,2.55-6.38-0.26-8.4,2.03C-202.97-1574-200.97-1578.15-197.68-1575.77z"/>
			<polygon points="-204.8,-1563.48 -206.77,-1563.09 -206,-1564.37 			"/>
			<path d="M-173.23-1603.76c3.05,2.87-0.12,3.77-2.37,3.41C-175.86-1601.81-175.63-1604.83-173.23-1603.76z"/>
			<polygon points="-184.94,-1580.41 -188.99,-1578.93 -187.74,-1579.9 			"/>
			<path d="M-150.78-1510.46c4.53-1.12,6.64,3.01,8.65,6.42c0.87,3.21-4.46,6.32-0.46,8.64c-3.26,0.17-12.05,3.85-15.93-2.95
				C-162.32-1504.41-156.96-1510.56-150.78-1510.46z"/>
			<path d="M-123.77-1530.88c-2.67-4.77,5.21-2.73,0.97-6.88c2.1-2.78,4.75-3.09,7.59-3.69c2.81-0.57,5.78-1.41,8.55-5.14
				c-0.51,2.49,1.19,3.82,2.97,4.03c1.77,0.22,3.66-0.69,3.6-2.72c3.11,8.12,7.39,10.91,8.72,18.89c-2.45,3.64-8.77,6.72-4.9,12.49
				c-3.6-0.27-9.87,1.04-9.01,5.75c-6.85-3.78-11.06-4.95-17.69-10.54c-0.84-1.36-0.22-4.35-0.2-7.06c-0.01-2.7-0.53-5.13-3.94-5.31
				C-125.76-1531.29-124.97-1529.94-123.77-1530.88z"/>
			<path d="M-248.22-1293.66c2.53,1.29,4.05,2.35,5.78,3.48c1.71,1.12,3.68,2.32,6.8,3.83c0.38,2.74-1.65,4.04-3.92,5.32
				c-2.22,1.29-4.45,2.57-4.07,5.32c-1.66,0.21-3.22,0.41-4.69,0.6c-1.5,0.18-2.9,0.35-4.24,0.48c-2.64,0.27-5.08,0.38-7.31,0.26
				c-2.23-0.12-4.25-0.48-6.2-1.2c-1.97-0.72-3.85-1.8-5.74-3.34c-1.97-2.74,1.46-5.38,1.53-7.98
				C-266.34-1293.28-254.56-1290.8-248.22-1293.66z"/>
			<polygon points="-90.64,-1545.74 -92.73,-1544.36 -91.34,-1546.4 			"/>
			<path d="M-166.9-1379.43c1.81,1.51,2.41,3.28,3.87,4.48c-0.21,2.66-0.35,5.22-1.24,7.21c-0.44,1-1.08,1.86-1.99,2.52
				c-0.88,0.66-2.05,1.13-3.58,1.34c-1.01-0.56-2.25-0.47-3.49-0.73c-1.23-0.26-2.41-0.85-3.11-2.77c-0.15-2.59-1.6-6.41-0.24-8.2
				c1.54-1.09,3.07-2.53,4.64-3.47C-170.4-1379.97-168.74-1380.39-166.9-1379.43z"/>
			<path d="M-130.37-1420.9c0.73-2.36,2.47-3.66,4.42-4.72c1.97-1.06,4.2-1.88,5.85-3.27c0.68,0.36,1.06,0.69,1.51,0.98
				c0.43,0.29,0.85,0.54,1.24,0.78c0.78,0.47,1.49,0.87,2.14,1.33c1.32,0.92,2.36,2.14,3.38,4.75c1.93,4.51,0.2,6.21-2.25,7.69
				c-1.24,0.74-2.64,1.42-3.8,2.35c-0.16,0.12-0.26,0.23-0.45,0.36c-0.19,0.13-0.37,0.26-0.55,0.4c-0.35,0.28-0.68,0.57-0.97,0.89
				c-0.58,0.64-1.02,1.38-1.26,2.26c-4.08-4.2-8.28-9.88-10.11-14.41L-130.37-1420.9z"/>
			<path d="M24.85-1619.79c-0.03,0.75-0.07,1.48-0.45,1.83l-1.37-2.27C24.14-1620.55,24.49-1620.18,24.85-1619.79z"/>
			<path d="M-177.34-1301.21c0.58,0.3,1.28,0.84,1.9,1.53c0.62,0.69,1.16,1.55,1.57,2.48c0.81,1.87,1.03,4.08,0.11,6.01
				c-0.18,0.99-0.47,1.7-0.84,2.23c-0.38,0.52-0.81,0.86-1.21,1.1c-0.81,0.48-1.87,0.56-2.57,0.98c-2.27-1.54-3.31-6.93-3.27-10.75
				c0.54-0.94,1.05-2.34,1.68-3.25C-179.34-1301.8-178.4-1302.23-177.34-1301.21z"/>
			<path d="M-10.52-1541.3l1.52,3.34L-10.52-1541.3z"/>
			<path d="M-31.07-1501.84c-1.51,1.91-3.59,6.7-6.77,4.27c-3.48-1.33-0.87-6.21-1.16-8.79c1.32,0.88,3.16,0.72,4.75,0.98
				C-32.66-1505.1-31.33-1504.4-31.07-1501.84z"/>
			<path d="M-713.31-1590.18c2.52-3.21,5.89-5.01,6.85-10.29c1.91,1.66,1.21,5.8,4.26,4.4c7.86-3.3,18.12-3,22.47-12.89
				c-0.87,3.38-5.26,6.29-3.89,10.99c3.66,1.92,7.59,2.76,12.45,1.71c-4.11,1.74,2.02,4.65,2.1,6.14
				c7.93,4.65,18.11-3.23,24.93-0.19c-5.19,2.06-15.84-0.36-17.95,6.79c1.04,7.31,9.4,8.33,12.3,11.9c0.03,0.71-2.79-0.64-4.17-0.54
				c0.91,5.85-3.93,13.81,3.69,16.4c-1.36,5.4-5.84,10.88-11.16,16.16c-5.33,5.28-11.49,10.4-16.35,15
				c-8.27-0.49-16.7-3.09-25.11-4.11c-0.24,1.13-0.79,2.66-0.67,4.12c-2.17-4.41-6.09-8.35-10.33-11.19
				c-2.13-1.41-4.29-2.55-6.44-3.32c-2.18-0.77-4.25-1.19-6-1.17c-3.62-4.43,4.66-2.74,1.67-7.97c0.23-4.47-4.17-6.21-6.27-9.31
				c2.74-11.04,3.55-17.05,4.23-27.88c2.61,4.54,4.83,2.36,6.94-0.45C-717.67-1588.69-715.61-1592.15-713.31-1590.18z"/>
			<path d="M72.86-1606.53c-0.38,1.11,0.35,1.12,0.73,1.5l11.24-12.43l0.01,2.94c8.59-2.57,14.21-3.7,23.77-6.3
				c6.93,1.34,12.27,5.36,17.61,9.46c5.32,4.07,10.64,8.22,17.18,9.58c1.87,3.26,0.93,3.58-0.88,3.55c-1.81-0.05-4.45-0.44-6,1.41
				c1.1,2.08-1.79,8.02,3.51,5.13c-3.93,3.84-3.84,7.87-7.11,11.57l4.5,2.47c-5.42,3.57-10.07,3.61-11.92,10.41
				c4.15,2.25,6.63-2.03,10.51,1.23c-5.4-1.62-10.04-0.23-14.87,1.23c-4.81,1.42-9.85,2.9-15.56,1.21l1.6,4.74
				c-5.76-0.91-8.53-8.25-15.04-4.48l0.49,2.59c-9.27-4.37-14.38-12.19-22.27-17.81C61.83-1588.6,69.81-1596.97,72.86-1606.53z"/>
			<path d="M-48.29-1466.61c1.56,1.01,1.87,2.87,1.89,4.33c-1.54,3.38-4.21,3.13-6.04,1.04
				C-53.69-1464.87-50.43-1466.88-48.29-1466.61z"/>
			<path d="M-33.35-1484.49c1.43,0.32,0.26,1.83,0.24,2.57c-1.15,1.48-3.4,0.1-2.52-2.5C-35.04-1485.9-34.2-1484.83-33.35-1484.49z"
				/>
			<path d="M44.57-1532.01l1.64-1.41L44.57-1532.01z"/>
			<path d="M61.26-1537.04c0.34,1.84-0.46,2.67-1.77,2.82c-1.33,0.15-3.08-0.36-4.31-1.12c0.83-0.72,1.76-1.34,2.79-1.68
				C58.98-1537.38,60.18-1537.43,61.26-1537.04z"/>
			<path d="M135.77-1602.67l0.33-0.43c1.01,0.76,2.03,1.48,3.05,2.23l-0.34,0.43L135.77-1602.67z"/>
			<path d="M100.15-1552.36c-1.85-2.17-3.63-4.35-5.39-6.54c1.6,1.33,3.19,2.66,4.85,3.97L100.15-1552.36z"/>
			<path d="M150.91-1608.86c0.89,0.61,0.83,2.48-0.6,3.46C148.99-1606.32,149.4-1608.6,150.91-1608.86z"/>
			<path d="M152.48-1594.92l5.32,0.22L152.48-1594.92z"/>
			<path d="M152.6-1580.03c-0.66,3.47,3.44,0.21,4.7,0.38c-1.74,3.09-3.63,2.73-5.74,2.11c-2.12-0.61-4.46-1.51-7.31,0.56
				C146.5-1578.8,149.41-1581.4,152.6-1580.03z"/>
			<path d="M364.09-1671.68c7.77,6.26,19.73-0.14,25.46,5.58c-0.64,0.55-2.75,0.11-2.25,1.92c11.84-0.71,3.15,12.88,14.86,11.64
				l-4.89,2.02c0.06,3.85,2.96,4.64,5.53,6.29c-1.5,0.19-3.16-1.7-5.02-0.64c0.82,5.36-2.18,10.18-4.49,13.85
				c0.04-0.6-0.24-0.9-0.79-1.52c-3.86,4.47-5.47,6.42-12.07,7.77c-0.42,2.04,1.58,3.06,3.03,3.43c-2.96-4.32-8.75-4.09-14.58-4.32
				c-5.83-0.24-11.69-0.93-15.03-7.24c-6.01,2.72-6.06-5.21-9.29-7.95c-4.12-3.08-3.78-6.29-2.79-10.69
				C346.48-1660.58,352.86-1669.24,364.09-1671.68z"/>
			<path d="M-4.19-1427.85c2.7,1.58,1.86,4.5,1.08,6.68c-1.58,0.88-2.99,0.63-4.01-0.13c-1.02-0.77-1.77-2.08-2.19-3.38
				c0.22-1.28,1.07-2,2.07-2.43c0.5-0.22,1.04-0.36,1.55-0.48C-5.15-1427.69-4.63-1427.78-4.19-1427.85z"/>
			<path d="M205.67-1626.13l3.38-2.04L205.67-1626.13z"/>
			<path d="M88.26-1485.51l0.99,0.74l-3.34-0.38C86.34-1486.26,87.27-1485.5,88.26-1485.51z"/>
			<path d="M100.79-1480.82l0.08,0.75c-1.1-0.71-2.14-1.44-3.18-2.17C99.14-1482.62,100.25-1481.17,100.79-1480.82z"/>
			<path d="M95.33-1464.88c3.06,0.72,6.34,1.4,9.58,2.07c-4.33,2.11-5.7,3.7-6.81,5.43c-1.1,1.72-2,3.58-5.49,6.17
				c-1.92-1.28-4.65-1.29-7.53-1.71c-2.74-0.44-5.68-1.29-7.58-4.28c-1.48-1.85-0.65-7,2.5-8.81c2.64-0.16,6.73-1.69,10.14-2.3
				C93.48-1468.9,96.13-1468.58,95.33-1464.88z"/>
			<polygon points="402.74,-1674.06 401.18,-1673.3 402.13,-1674.11 			"/>
			<polygon points="96.2,-1467.08 95.68,-1467.47 97.12,-1468.58 			"/>
			<polygon points="516.95,-1889.33 516.19,-1887.69 516.8,-1889.27 			"/>
			<path d="M83.18-1447.9c0.99,0.25,1.99,0.51,3.04,0.75C85.17-1447.39,84.17-1447.64,83.18-1447.9z"/>
			<path d="M399.41-1660.13l5.34,0.37L399.41-1660.13z"/>
			<polygon points="412.86,-1665.08 410.18,-1664.98 411.07,-1665.2 			"/>
			<path d="M421.73-1666.23c1.12,0.66-0.07,1.18-0.69,1.73C420.81-1665.42,420.26-1666.05,421.73-1666.23z"/>
			<path d="M399.22-1635.61c-1.01,1.99-1.13-0.69-1.69-1.29C398.44-1637.15,398.36-1635.99,399.22-1635.61z"/>
			<path d="M393.07-1623.67c-2.24-1.88-5.97,0.82-6.45-1.01C389.04-1625.11,393.12-1628.67,393.07-1623.67z"/>
			<path d="M416.49-1650.05l4.02,1.46L416.49-1650.05z"/>
			<polygon points="403.12,-1636.22 400.88,-1633.76 399.77,-1634.98 402.3,-1637.17 			"/>
			<path d="M138.06-1440.6c2.66,2.37,0.64,3.84-2.01,4.25c-2.65,0.41-5.89-0.31-5.6-2.16
				C131.87-1440.47,135.09-1441.42,138.06-1440.6z"/>
			<path d="M150.33-1447.7c0.69,3.64-7.34,2.97-6.72-0.06C146.3-1448.41,148.36-1449.36,150.33-1447.7z"/>
			<path d="M144.54-1429.31c0.02,3.35-3.28,1.05-5.7,0.51C141.13-1429,141.26-1431.59,144.54-1429.31z"/>
			<path d="M143.22-1389.91c-7.72,1.76-7.77,9.16-17.02,6.03C130.56-1387.83,135.9-1389.27,143.22-1389.91z"/>
			<path d="M140.15-1382.62c-0.79-1.04-1.28,3.46-3.56,1.03L140.15-1382.62z"/>
			<polygon points="147.03,-1386.16 143.49,-1385.09 145.81,-1386.04 			"/>
			<polygon points="150.2,-1382.76 145.53,-1380.83 149.48,-1383.08 			"/>
			<path d="M194.26-1391.05c1.49,1.98-1.6,3.68-3.26,1.72c0.13-0.58,0.61-0.85,1.24-1.06
				C192.87-1390.6,193.57-1390.73,194.26-1391.05z"/>
			<path d="M482.18-1604.56c0.47,0.84,0.93,1.69,1.24,2.54c0.15,0.42,0.28,0.85,0.19,1.22c0,0.01-0.02,0.07,0,0.04l0.15-0.4
				c0.1-0.26,0.21-0.52,0.33-0.77c0.14-0.27,0.23-0.48,0.32-0.67c0.1-0.2,0.21-0.39,0.34-0.57c0.14-0.29,0.41-0.57,0.52-0.67
				c0.19-0.14,0.2-0.08,0.15-0.11c0.04,0.04,0.06-0.04-0.18,0.14c-0.05,0.04-0.08,0.08-0.12,0.13c-0.07,0.07-0.13,0.14-0.19,0.22
				c-0.06,0.08-0.11,0.16-0.16,0.25l-0.21,0.33c-0.15,0.25-0.23,0.46-0.39,0.79c-0.16,0.33-0.31,0.67-0.45,1.03
				c-0.06,0.17-0.14,0.37-0.23,0.6c-0.08,0.22-0.17,0.44-0.25,0.67c-0.16,0.47-0.32,0.96-0.49,1.45l-0.08,0.24l-0.02,0.04
				l-0.03,0.08c-0.01,0.05-0.05,0.1-0.09,0.14c-0.06,0.09-0.13,0.17-0.23,0.24c-0.16,0.15-0.38,0.26-0.6,0.36
				c-0.91,0.37-2.1,0.4-3.3,0.2c-1.18-0.19-2.53-0.63-3.59-1.15c-1.08-0.52-1.96-1.16-2.48-1.75c-0.39-2.81,1.28-4.04,3.44-4.59
				C477.91-1605.08,480.56-1604.88,482.18-1604.56z"/>
			<path d="M387.56-1498.17c-0.49,1.82-2.67,0.93-4.45,0.43c-1.17-1.37,0.01-2.77,1.45-3.18
				C386.01-1501.32,387.73-1500.74,387.56-1498.17z"/>
			<polygon points="446.77,-1528.65 443.23,-1531.11 447.26,-1530.46 			"/>
		</g>
	</g>
</g>
<text transform="matrix(1 0 0 1 -2882.7056 -547.2908)" style="font-family:'LoRes9OT-WideBoldAltOakland'; font-size:56.938px;">music</text>
<circle class="st3" cx="-242.69" cy="78.1" r="5.5"/>
<circle class="st3" cx="-251.1" cy="85.49" r="5.5"/>
<circle class="st3" cx="-234.12" cy="85.49" r="5.5"/>
<path class="st4" d="M15.94,13.17H1.62c-0.62,0-1.12-0.5-1.12-1.12V1.62C0.5,1,1,0.5,1.62,0.5h14.32c0.62,0,1.12,0.5,1.12,1.12
	v10.42C17.07,12.67,16.57,13.17,15.94,13.17z"/>
<line class="st4" x1="0.5" y1="2.59" x2="8.78" y2="9.22"/>
<line class="st4" x1="16.77" y1="2.59" x2="8.78" y2="9.22"/>
<circle class="st3" cx="-242.69" cy="93.09" r="5.5"/>
<line class="st5" x1="-221.8" y1="77.62" x2="-204.84" y2="77.62"/>
<line class="st5" x1="-213.41" y1="84.94" x2="-213.41" y2="69.95"/>
</svg>
